<svg width="28" height="33" viewBox="0 0 28 33" fill="none" xmlns="http://www.w3.org/2000/svg">
<path d="M26.7125 3.96864C22.4173 3.96265 18.2247 2.6552 14.6875 0.218636C14.4795 0.0762131 14.2333 0 13.9812 0C13.7291 0 13.483 0.0762131 13.275 0.218636C9.74829 2.64798 5.56989 3.95509 1.28748 3.96864C0.955955 3.96864 0.638013 4.10033 0.403592 4.33475C0.169172 4.56917 0.0374756 4.88712 0.0374756 5.21864C0.0374756 16.1936 5.11248 26.4686 13.275 31.9936C13.4817 32.1334 13.7255 32.208 13.975 32.208C14.2245 32.208 14.4683 32.1334 14.675 31.9936C22.875 26.4936 27.9625 16.2311 27.9625 5.21864C27.9625 4.88712 27.8308 4.56917 27.5964 4.33475C27.3619 4.10033 27.044 3.96864 26.7125 3.96864ZM14 29.4436C7.21248 24.4436 2.92498 15.8186 2.57498 6.44364C6.63853 6.20565 10.5727 4.92725 14 2.73114C17.4309 4.94455 21.3744 6.23611 25.45 6.48114C25.1 15.8436 20.7875 24.4936 14 29.4436Z" fill="#D1AD84"/>
</svg>
